<svg width="300" height="300" viewBox="0 0 300 300" fill="none" xmlns="http://www.w3.org/2000/svg">
<rect width="300" height="300" rx="150" fill="black"/>
<path d="M149.5 62.7291C130.548 62.7291 112.372 70.2577 98.9713 83.6588C85.5703 97.0598 78.0417 115.236 78.0417 134.187C78.0417 153.139 85.5703 171.315 98.9713 184.716C112.372 198.117 130.548 205.646 149.5 205.646C168.452 205.646 186.628 198.117 200.029 184.716C213.43 171.315 220.958 153.139 220.958 134.187C220.958 115.236 213.43 97.0598 200.029 83.6588C186.628 70.2577 168.452 62.7291 149.5 62.7291ZM57.625 134.187C57.6264 116.452 62.7611 99.096 72.4093 84.2145C82.0575 69.333 95.8066 57.5621 111.997 50.3226C128.188 43.0831 146.128 40.6845 163.652 43.4163C181.175 46.1481 197.534 53.8936 210.753 65.7178C223.972 77.5419 233.485 92.9394 238.146 110.052C242.807 127.164 242.415 145.259 237.018 162.153C231.621 179.048 221.449 194.019 207.731 205.26C194.013 216.5 177.334 223.53 159.708 225.501V235.811C176.64 234.139 192.88 228.234 206.932 218.641L215.364 212.894L226.869 229.758L218.437 235.515C200.994 247.422 180.757 254.591 159.708 256.32V256.687H153.052C150.685 256.755 148.315 256.755 145.948 256.687H139.292V256.32C118.243 254.591 98.0057 247.422 80.5631 235.515L72.131 229.758L83.6358 212.894L92.0679 218.641C106.119 228.238 122.359 234.146 139.292 235.822V225.511C93.3542 220.427 57.625 181.483 57.625 134.187ZM149.5 113.771C144.085 113.771 138.892 115.922 135.063 119.751C131.234 123.58 129.083 128.773 129.083 134.187C129.083 139.602 131.234 144.795 135.063 148.624C138.892 152.453 144.085 154.604 149.5 154.604C154.915 154.604 160.108 152.453 163.937 148.624C167.766 144.795 169.917 139.602 169.917 134.187C169.917 128.773 167.766 123.58 163.937 119.751C160.108 115.922 154.915 113.771 149.5 113.771ZM108.667 134.187C108.667 123.358 112.969 112.972 120.626 105.314C128.284 97.6562 138.67 93.3541 149.5 93.3541C160.33 93.3541 170.716 97.6562 178.374 105.314C186.031 112.972 190.333 123.358 190.333 134.187C190.333 145.017 186.031 155.403 178.374 163.061C170.716 170.719 160.33 175.021 149.5 175.021C138.67 175.021 128.284 170.719 120.626 163.061C112.969 155.403 108.667 145.017 108.667 134.187Z" fill="#46BAE7"/>
</svg>
